<svg width="47" height="47" viewBox="0 0 47 47" fill="none" xmlns="http://www.w3.org/2000/svg">
<rect x="0.625263" y="0.279193" width="45.7877" height="45.7877" rx="10.8885" fill="white" stroke="#E4E4E4" stroke-width="0.558386"/>
<path d="M18.354 11.8191H28.1257C31.8483 11.8191 34.8729 14.8437 34.8729 18.5663V28.338C34.8729 30.1275 34.1621 31.8437 32.8967 33.109C31.6314 34.3743 29.9152 35.0852 28.1257 35.0852H18.354C14.6314 35.0852 11.6068 32.0606 11.6068 28.338V18.5663C11.6068 16.7768 12.3177 15.0606 13.583 13.7953C14.8484 12.53 16.5645 11.8191 18.354 11.8191ZM18.1213 14.1457C17.0106 14.1457 15.9454 14.5869 15.16 15.3723C14.3746 16.1577 13.9334 17.2229 13.9334 18.3336V28.5707C13.9334 30.8857 15.8063 32.7586 18.1213 32.7586H28.3584C29.4691 32.7586 30.5343 32.3174 31.3197 31.532C32.1051 30.7466 32.5463 29.6814 32.5463 28.5707V18.3336C32.5463 16.0186 30.6734 14.1457 28.3584 14.1457H18.1213ZM29.3472 15.8907C29.7329 15.8907 30.1027 16.0439 30.3754 16.3166C30.6481 16.5893 30.8013 16.9591 30.8013 17.3448C30.8013 17.7304 30.6481 18.1003 30.3754 18.373C30.1027 18.6457 29.7329 18.7989 29.3472 18.7989C28.9616 18.7989 28.5917 18.6457 28.319 18.373C28.0463 18.1003 27.8931 17.7304 27.8931 17.3448C27.8931 16.9591 28.0463 16.5893 28.319 16.3166C28.5917 16.0439 28.9616 15.8907 29.3472 15.8907ZM23.2399 17.6356C24.7825 17.6356 26.262 18.2484 27.3528 19.3392C28.4436 20.43 29.0564 21.9095 29.0564 23.4521C29.0564 24.9948 28.4436 26.4742 27.3528 27.565C26.262 28.6559 24.7825 29.2687 23.2399 29.2687C21.6972 29.2687 20.2178 28.6559 19.127 27.565C18.0361 26.4742 17.4233 24.9948 17.4233 23.4521C17.4233 21.9095 18.0361 20.43 19.127 19.3392C20.2178 18.2484 21.6972 17.6356 23.2399 17.6356ZM23.2399 19.9622C22.3143 19.9622 21.4266 20.3299 20.7721 20.9844C20.1176 21.6389 19.7499 22.5266 19.7499 23.4521C19.7499 24.3777 20.1176 25.2654 20.7721 25.9199C21.4266 26.5744 22.3143 26.9421 23.2399 26.9421C24.1654 26.9421 25.0531 26.5744 25.7076 25.9199C26.3621 25.2654 26.7298 24.3777 26.7298 23.4521C26.7298 22.5266 26.3621 21.6389 25.7076 20.9844C25.0531 20.3299 24.1654 19.9622 23.2399 19.9622Z" fill="#3978F2"/>
</svg>
