<svg width="47" height="47" viewBox="0 0 47 47" fill="none" xmlns="http://www.w3.org/2000/svg">
<rect x="0.279193" y="0.279193" width="45.7877" height="45.7877" rx="10.8885" fill="white" stroke="#E4E4E4" stroke-width="0.558386"/>
<path d="M21.7305 29.2688H17.0773C15.468 29.2688 14.0965 28.7015 12.9627 27.5669C11.8288 26.4323 11.2615 25.0607 11.2607 23.4523C11.26 21.8438 11.8273 20.4723 12.9627 19.3377C14.098 18.203 15.4696 17.6357 17.0773 17.6357H21.7305V19.9624H17.0773C16.1078 19.9624 15.2838 20.3016 14.6052 20.9802C13.9267 21.6588 13.5874 22.4828 13.5874 23.4523C13.5874 24.4217 13.9267 25.2457 14.6052 25.9243C15.2838 26.6029 16.1078 26.9422 17.0773 26.9422H21.7305V29.2688ZM18.2406 24.6156V22.289H27.547V24.6156H18.2406ZM24.0571 29.2688V26.9422H28.7103C29.6797 26.9422 30.5037 26.6029 31.1823 25.9243C31.8609 25.2457 32.2002 24.4217 32.2002 23.4523C32.2002 22.4828 31.8609 21.6588 31.1823 20.9802C30.5037 20.3016 29.6797 19.9624 28.7103 19.9624H24.0571V17.6357H28.7103C30.3196 17.6357 31.6915 18.203 32.8261 19.3377C33.9607 20.4723 34.5276 21.8438 34.5268 23.4523C34.5261 25.0607 33.9588 26.4327 32.8249 27.568C31.6911 28.7034 30.3196 29.2703 28.7103 29.2688H24.0571Z" fill="#3978F2"/>
</svg>
