<svg width="83" height="83" viewBox="0 0 83 83" fill="none" xmlns="http://www.w3.org/2000/svg">
<rect x="0.5" y="0.5" width="82" height="82" rx="19.5" fill="white" stroke="#E4E4E4"/>
<path d="M49.3327 21.1665C56.2363 21.1665 61.8327 26.4685 61.8327 33.0086C61.8327 34.9671 61.4353 37.026 60.6405 39.1854L57.3085 35.8625C57.5105 35.0189 57.6267 34.2079 57.6576 33.4302L57.6661 33.0086C57.6661 28.8215 53.984 25.3331 49.3327 25.3331C47.7471 25.3331 46.2411 25.7403 44.9465 26.483L39.1133 32.1052C38.2997 32.9187 38.2997 34.2378 39.1133 35.0514C39.9269 35.865 41.246 35.865 42.0596 35.0514L47.7135 29.1714L50.5494 32.0456L58.5934 40.089C61.0342 42.5298 61.0342 46.4871 58.5934 48.9278C57.8123 49.7089 56.876 50.24 55.8838 50.5212L55.7808 50.5479C56.2182 52.5573 55.6558 54.7405 54.0937 56.3026C52.4857 57.9105 50.2197 58.4592 48.1627 57.9486C47.8804 58.9147 47.3542 59.8054 46.5868 60.5046C44.3945 62.5022 41.1921 62.6874 38.794 60.9356L38.4247 60.6149L36.8025 59.16C25.7115 49.0419 20.166 40.3247 20.166 33.0086C20.166 26.4684 25.7625 21.1665 32.6661 21.1665C35.8685 21.1665 38.7896 22.3073 41.0012 24.1834C43.2111 22.3066 46.1313 21.1665 49.3327 21.1665ZM32.6661 25.3331C28.0148 25.3331 24.3327 28.8215 24.3327 33.0086C24.3327 38.8645 29.3042 46.6794 39.5847 56.0582L40.5202 56.8978C41.3444 57.7293 42.87 58.3734 43.7568 57.5184C44.5623 56.7416 44.4799 55.6608 43.8481 54.8596L42.5622 53.5477L37.748 48.7336L37.6595 48.6558L40.6407 45.6725L44.956 50.0497L46.5868 51.6799C46.6975 51.7906 46.8039 51.9055 46.9057 52.0244L47.9466 53.085C49.0313 54.1698 50.3762 54.2101 51.1897 53.3965C52.0033 52.5829 51.9776 51.2235 50.8929 50.1387L45.9101 45.0828L43.572 42.7433L46.5178 39.7953L48.0249 41.303C48.1776 41.4295 48.3242 41.563 48.4644 41.7032L50.3643 43.6453L52.7009 45.9815C53.5145 46.7951 54.8335 46.7951 55.6471 45.9815C56.4607 45.168 56.4607 43.8489 55.6471 43.0353L47.8057 35.1956L45.0059 37.9977C42.565 40.4385 38.6078 40.4385 36.167 37.9977C33.7263 35.5569 33.7263 31.5996 36.167 29.1589L38.1161 27.2081L37.915 27.0491C36.4481 25.9495 34.617 25.3331 32.6661 25.3331Z" fill="#3978F2"/>
</svg>
