<svg width="24" height="25" viewBox="0 0 24 25" fill="none" xmlns="http://www.w3.org/2000/svg">
<path d="M12 16.3333C13.66 16.3333 15 14.9933 15 13.3333C15 12.2133 14.39 11.2333 13.5 10.7233L3.79 5.10325L9.32 14.6833C9.82 15.6633 10.83 16.3333 12 16.3333ZM12 3.33325C10.19 3.33325 8.5 3.83325 7.03 4.65325L9.13 5.86325C10 5.52325 11 5.33325 12 5.33325C16.42 5.33325 20 8.91325 20 13.3333C20 15.5433 19.11 17.5433 17.66 18.9833H17.65C17.5573 19.0758 17.4837 19.1857 17.4336 19.3066C17.3834 19.4276 17.3576 19.5573 17.3576 19.6883C17.3576 19.8192 17.3834 19.9489 17.4336 20.0699C17.4837 20.1908 17.5573 20.3007 17.65 20.3933C18.04 20.7833 18.68 20.7833 19.07 20.4033C20 19.4759 20.7376 18.3739 21.2404 17.1606C21.7432 15.9473 22.0014 14.6466 22 13.3333C22 7.83325 17.5 3.33325 12 3.33325ZM2 13.3333C2 16.0933 3.12 18.5933 4.93 20.4033C5.32 20.7833 5.95 20.7833 6.34 20.3933C6.4327 20.3007 6.50625 20.1908 6.55643 20.0699C6.60661 19.9489 6.63244 19.8192 6.63244 19.6883C6.63244 19.5573 6.60661 19.4276 6.55643 19.3066C6.50625 19.1857 6.4327 19.0758 6.34 18.9833C5.5963 18.2426 5.00662 17.362 4.605 16.3923C4.20338 15.4225 3.99775 14.3829 4 13.3333C4 12.3333 4.19 11.3333 4.54 10.4333L3.33 8.33325C2.5 9.83325 2 11.5133 2 13.3333Z" fill="#4F4F4F"/>
</svg>
