<svg width="24" height="25" viewBox="0 0 24 25" fill="none" xmlns="http://www.w3.org/2000/svg">
<path d="M12 2.33325C17.523 2.33325 22 6.81025 22 12.3333C22 17.8563 17.523 22.3333 12 22.3333C6.477 22.3333 2 17.8563 2 12.3333C2 6.81025 6.477 2.33325 12 2.33325ZM8 13.3333L4.062 13.3343C4.28479 15.0965 5.08743 16.7345 6.34351 17.9904C7.5996 19.2463 9.23775 20.0487 11 20.2713V16.3333C10.2044 16.3333 9.44129 16.0172 8.87868 15.4546C8.31607 14.892 8 14.1289 8 13.3333ZM19.938 13.3343L16 13.3333C16 14.1289 15.6839 14.892 15.1213 15.4546C14.5587 16.0172 13.7956 16.3333 13 16.3333L13.001 20.2713C14.7631 20.0485 16.401 19.246 17.6569 17.9901C18.9128 16.7342 19.7153 15.0963 19.938 13.3343ZM14 12.3333H10V13.3333C10 13.5985 10.1054 13.8528 10.2929 14.0404C10.4804 14.2279 10.7348 14.3333 11 14.3333H13C13.2652 14.3333 13.5196 14.2279 13.7071 14.0404C13.8946 13.8528 14 13.5985 14 13.3333V12.3333ZM12 4.33325C10.0513 4.33307 8.16959 5.04415 6.70803 6.33301C5.24647 7.62186 4.30558 9.39987 4.062 11.3333H8C8 11.068 8.10536 10.8137 8.29289 10.6261C8.48043 10.4386 8.73478 10.3333 9 10.3333H15C15.2652 10.3333 15.5196 10.4386 15.7071 10.6261C15.8946 10.8137 16 11.068 16 11.3333H19.938C19.6944 9.39987 18.7535 7.62186 17.292 6.33301C15.8304 5.04415 13.9487 4.33307 12 4.33325Z" fill="#4F4F4F"/>
</svg>
