<svg width="47" height="47" viewBox="0 0 47 47" fill="none" xmlns="http://www.w3.org/2000/svg">
<rect x="0.317401" y="0.279193" width="45.7877" height="45.7877" rx="10.8885" fill="white" stroke="#E4E4E4" stroke-width="0.558386"/>
<path d="M33.4018 23.4521C33.4018 21.2645 32.7166 19.1318 31.4424 17.3536C30.1681 15.5754 28.3689 14.241 26.2974 13.5378C24.2258 12.8346 21.9861 12.798 19.8927 13.433C17.7992 14.0681 15.9573 15.343 14.6256 17.0786C13.294 18.8142 12.5394 20.9233 12.4679 23.1098C12.3964 25.2962 13.0116 27.4502 14.227 29.269C15.4425 31.0879 17.1972 32.4804 19.2447 33.2508C21.2921 34.0213 23.5295 34.1311 25.6425 33.5647" stroke="#3978F2" stroke-width="2.32661" stroke-linecap="round"/>
<path d="M22.932 28.1055C25.5019 28.1055 27.5852 26.0222 27.5852 23.4523C27.5852 20.8824 25.5019 18.7991 22.932 18.7991C20.3621 18.7991 18.2788 20.8824 18.2788 23.4523C18.2788 26.0222 20.3621 28.1055 22.932 28.1055Z" stroke="#3978F2" stroke-width="2.32661"/>
<path d="M27.5851 19.9624V25.1973C27.5851 25.9686 27.8915 26.7083 28.4369 27.2537C28.9823 27.7991 29.722 28.1055 30.4933 28.1055C31.2647 28.1055 32.0044 27.7991 32.5498 27.2537C33.0952 26.7083 33.4016 25.9686 33.4016 25.1973V23.4523" stroke="#3978F2" stroke-width="2.32661" stroke-linecap="round"/>
</svg>
