<svg width="47" height="47" viewBox="0 0 47 47" fill="none" xmlns="http://www.w3.org/2000/svg">
<rect x="0.663471" y="0.279193" width="45.7877" height="45.7877" rx="10.8885" fill="white" stroke="#E4E4E4" stroke-width="0.558386"/>
<path d="M17.7571 31.0066L18.5993 31.4987C20.0196 32.3272 21.6351 32.7621 23.2793 32.7586C25.1199 32.7586 26.9193 32.2128 28.4497 31.1902C29.9801 30.1676 31.173 28.7141 31.8773 27.0136C32.5817 25.313 32.766 23.4418 32.4069 21.6365C32.0478 19.8313 31.1615 18.173 29.86 16.8715C28.5584 15.57 26.9002 14.6836 25.0949 14.3245C23.2896 13.9654 21.4184 14.1497 19.7179 14.8541C18.0174 15.5585 16.5639 16.7513 15.5413 18.2818C14.5187 19.8122 13.9729 21.6115 13.9729 23.4521C13.9695 25.0969 14.4048 26.7128 15.2339 28.1333L15.7248 28.9755L14.9652 31.7686L17.7571 31.0066ZM11.6509 35.0852L13.2237 29.3059C12.1871 27.5294 11.6427 25.5089 11.6463 23.4521C11.6463 17.0272 16.8544 11.8191 23.2793 11.8191C29.7042 11.8191 34.9124 17.0272 34.9124 23.4521C34.9124 29.8771 29.7042 35.0852 23.2793 35.0852C21.2235 35.0887 19.2038 34.5447 17.4279 33.5089L11.6509 35.0852ZM19.0809 17.9939C19.2376 17.9831 19.3939 17.9815 19.5498 17.9893C19.6126 17.9939 19.6754 18.0001 19.7382 18.0079C19.9232 18.0288 20.1268 18.1417 20.1954 18.2975C20.5421 19.0847 20.8786 19.8758 21.2051 20.6707C21.2773 20.8475 21.2342 21.0743 21.0969 21.2954C21.0271 21.4082 20.9178 21.5664 20.791 21.7281C20.6595 21.8968 20.3769 22.2062 20.3769 22.2062C20.3769 22.2062 20.2617 22.3435 20.3059 22.5145C20.3222 22.5797 20.3757 22.6739 20.4246 22.753L20.4932 22.8635C20.791 23.3602 21.1912 23.864 21.6798 24.3386C21.8194 24.4735 21.9555 24.612 22.102 24.7411C22.6465 25.2215 23.263 25.6136 23.9284 25.9044L23.9342 25.9067C24.0331 25.9498 24.0832 25.973 24.2274 26.0347C24.2995 26.0649 24.3736 26.0905 24.4496 26.1115C24.4775 26.1192 24.5058 26.1235 24.5345 26.1243C24.6008 26.1268 24.6668 26.113 24.7266 26.0843C24.7864 26.0555 24.8383 26.0125 24.8777 25.9591C25.7188 24.94 25.7967 24.8737 25.8025 24.8737V24.876C25.8609 24.8213 25.9304 24.7798 26.0063 24.7543C26.0822 24.7288 26.1626 24.72 26.2422 24.7283C26.3136 24.7314 26.3822 24.7469 26.4482 24.7748C27.0659 25.0575 28.0768 25.4984 28.0768 25.4984L28.7538 25.802C28.8678 25.8567 28.9714 25.9858 28.9748 26.1103C28.9795 26.1882 28.9865 26.3139 28.9597 26.5442C28.9225 26.8455 28.8318 27.2073 28.741 27.3969C28.6781 27.5259 28.5957 27.6444 28.4967 27.7482C28.3792 27.8714 28.2507 27.9835 28.1128 28.0833C28.0167 28.1546 27.9682 28.1895 27.9674 28.188C27.8228 28.2798 27.6741 28.3652 27.5219 28.4439C27.2222 28.6026 26.8915 28.6939 26.5528 28.7114C26.3376 28.7231 26.1224 28.7394 25.906 28.7277C25.8967 28.7277 25.2453 28.6265 25.2453 28.6265C23.5914 28.1914 22.0618 27.3764 20.7782 26.2464C20.5153 26.0149 20.271 25.766 20.0221 25.5182C18.989 24.4886 18.2061 23.3777 17.7303 22.3284C17.489 21.8133 17.3582 21.2534 17.3465 20.6846C17.3421 19.9782 17.5734 19.2905 18.0037 18.7303C18.0886 18.6209 18.1689 18.5069 18.3073 18.3755C18.4539 18.2359 18.5481 18.1614 18.6494 18.1102C18.7843 18.0439 18.9309 18.0044 19.0809 17.9939Z" fill="#3978F2"/>
</svg>
